# xmcd
#
# Track frame offsets: 
#        150
#        18285
#        33311
#        51377
#        69465
#        86037
#        104033
#        124925
#        141268
#        159778
#        179455
#        195527
#
# Disc length: 2863 seconds
#
# Revision: 0
# Processed by: cddbd v1.5.2PL0 Copyright (c) Steve Scherf et al.
# Submitted via: ExactAudioCopy v1.0b3
#
DISCID=a60b2d0c
DTITLE=Tired Pony - The Ghost of The Mountain
DYEAR=2013
DGENRE=Alternative
TTITLE0=I Don't Want You as A Ghost
TTITLE1=I'm Begging You Not to Go
TTITLE2=Blood
TTITLE3=The Creak in The Floorboards
TTITLE4=All Things All at Once
TTITLE5=Wreckage and Bone
TTITLE6=The Beginning of The End
TTITLE7=Carve Our Names
TTITLE8=Ravens and Wolves
TTITLE9=Punishment
TTITLE10=The Ghost of The Mountain
TTITLE11=Your Way is The Way Home
EXTD=
EXTT0=
EXTT1=
EXTT2=
EXTT3=
EXTT4=
EXTT5=
EXTT6=
EXTT7=
EXTT8=
EXTT9=
EXTT10=
EXTT11=
PLAYORDER=
